<?xml version="1.0" encoding="UTF-8" standalone="no"?>
<svg
   xmlns:dc="http://purl.org/dc/elements/1.1/"
   xmlns:cc="http://creativecommons.org/ns#"
   xmlns:rdf="http://www.w3.org/1999/02/22-rdf-syntax-ns#"
   xmlns:svg="http://www.w3.org/2000/svg"
   xmlns="http://www.w3.org/2000/svg"
   xmlns:sodipodi="http://sodipodi.sourceforge.net/DTD/sodipodi-0.dtd"
   xmlns:inkscape="http://www.inkscape.org/namespaces/inkscape"
   version="1.1"
   id="svg2"
   xml:space="preserve"
   width="890.4024"
   height="385.8204"
   viewBox="0 0 890.40243 385.8204"
   sodipodi:docname="logo-ens-paris-saclay-rgb.svg"
   inkscape:version="1.0.1 (c497b03c, 2020-09-10)"><metadata
     id="metadata8"><rdf:RDF><cc:Work
         rdf:about=""><dc:format>image/svg+xml</dc:format><dc:type
           rdf:resource="http://purl.org/dc/dcmitype/StillImage" /></cc:Work></rdf:RDF></metadata><defs
     id="defs6"><clipPath
       clipPathUnits="userSpaceOnUse"
       id="clipPath18"><path
         d="M 0,566.929 H 1133.858 V 0 H 0 Z"
         id="path16" /></clipPath></defs><sodipodi:namedview
     pagecolor="#ffffff"
     bordercolor="#666666"
     borderopacity="1"
     objecttolerance="10"
     gridtolerance="10"
     guidetolerance="10"
     inkscape:pageopacity="0"
     inkscape:pageshadow="2"
     inkscape:window-width="1315"
     inkscape:window-height="794"
     id="namedview4"
     inkscape:document-rotation="0"
     showgrid="false"
     inkscape:zoom="0.16045334"
     inkscape:cx="885.97327"
     inkscape:cy="-365.66986"
     inkscape:window-x="0"
     inkscape:window-y="25"
     inkscape:window-maximized="0"
     inkscape:current-layer="g10" /><g
     id="g10"
     inkscape:groupmode="layer"
     inkscape:label="LOGO_ENS-PARIS-SACLAY_COULEUR (1)"
     transform="matrix(1.3333333,0,0,-1.3333333,-310.70426,570.86265)"><g
       id="g12"><g
         id="g14"
         clip-path="url(#clipPath18)"><g
           id="g20"
           transform="translate(244.2217,398.1646)"><path
             d="m 0,0 h 16.552 c 0,4.797 -2.799,8.395 -8.156,8.395 C 3.679,8.395 0.24,5.197 0,0 m 25.427,-18.23 c -4.078,-4.159 -9.035,-6.237 -15.352,-6.237 -12.233,0 -20.069,8.315 -20.069,20.229 0,9.275 4.877,18.551 14.632,20.388 L 6.797,29.982 H 19.03 L 11.514,16.311 C 22.148,14.711 26.386,5.117 26.226,-4.318 l -0.08,-3.678 H -0.479 c 0.879,-5.117 4.876,-8.236 10.314,-8.236 3.678,0 6.717,1.199 9.435,3.998 z"
             style="fill:#048299;fill-opacity:1;fill-rule:nonzero;stroke:none"
             id="path22" /></g><g
           id="g24"
           transform="translate(307.8672,401.522)"><path
             d="m 0,0 c -2.639,3.279 -5.597,4.877 -8.795,4.877 -6.157,0 -10.635,-5.117 -10.635,-12.232 0,-7.118 4.558,-12.235 10.715,-12.235 4.237,0 6.796,1.68 9.515,5.277 l 6.076,-6.236 c -3.838,-4.957 -9.194,-7.275 -15.911,-7.275 -5.437,0 -10.074,1.918 -13.912,5.836 -3.838,3.918 -5.757,8.795 -5.757,14.633 0,5.835 1.919,10.712 5.757,14.63 3.838,3.918 8.475,5.918 13.912,5.918 6.077,0 11.114,-2.238 15.032,-6.716 z"
             style="fill:#048299;fill-opacity:1;fill-rule:nonzero;stroke:none"
             id="path26" /></g><g
           id="g28"
           transform="translate(348.0049,385.3716)"><path
             d="m 0,0 c 2.078,2.318 3.118,5.197 3.118,8.795 0,3.598 -1.04,6.476 -3.118,8.795 -1.999,2.318 -4.638,3.437 -7.756,3.437 -6.396,0 -10.954,-5.117 -10.954,-12.232 0,-7.117 4.558,-12.234 10.954,-12.234 3.118,0 5.757,1.121 7.756,3.439 m 6.556,23.426 c 3.918,-3.918 5.917,-8.795 5.917,-14.631 0,-5.838 -1.999,-10.715 -5.917,-14.633 -3.918,-3.918 -8.635,-5.836 -14.312,-5.836 -5.677,0 -10.474,1.918 -14.392,5.836 -3.918,3.918 -5.837,8.795 -5.837,14.633 0,5.836 1.919,10.713 5.837,14.631 3.918,3.918 8.715,5.918 14.392,5.918 5.677,0 10.394,-2 14.312,-5.918"
             style="fill:#048299;fill-opacity:1;fill-rule:nonzero;stroke:none"
             id="path30" /></g><path
           d="m 369.673,428.147 h 9.115 v -53.57 h -9.115 z"
           style="fill:#048299;fill-opacity:1;fill-rule:nonzero;stroke:none"
           id="path32" /><g
           id="g34"
           transform="translate(397.9775,398.1646)"><path
             d="m 0,0 h 16.551 c 0,4.797 -2.799,8.395 -8.155,8.395 C 3.678,8.395 0.239,5.197 0,0 m 25.426,-18.23 c -4.078,-4.159 -9.035,-6.237 -15.352,-6.237 -12.233,0 -20.069,8.315 -20.069,20.229 0,10.394 6.157,20.789 18.31,20.789 12.954,0 18.23,-10.635 17.911,-20.071 L 26.065,-7.996 H -0.479 c 0.878,-5.117 4.876,-8.236 10.313,-8.236 3.679,0 6.717,1.199 9.436,3.998 z"
             style="fill:#048299;fill-opacity:1;fill-rule:nonzero;stroke:none"
             id="path36" /></g><g
           id="g38"
           transform="translate(244.0869,300.7759)"><path
             d="m 0,0 h -9.115 v 39.18 h 8.955 v -3.998 c 2.238,2.638 5.837,4.957 10.474,4.957 9.674,0 15.192,-6.877 15.192,-17.352 V 0 h -9.115 v 22.787 c 0,5.518 -2.879,9.115 -7.756,9.115 C 3.118,31.902 0,27.984 0,21.668 Z"
             style="fill:#048299;fill-opacity:1;fill-rule:nonzero;stroke:none"
             id="path40" /></g><g
           id="g42"
           transform="translate(304.8574,311.5708)"><path
             d="m 0,0 c 2.078,2.318 3.117,5.197 3.117,8.795 0,3.598 -1.039,6.476 -3.117,8.795 -2,2.318 -4.639,3.437 -7.756,3.437 -6.396,0 -10.955,-5.117 -10.955,-12.232 0,-7.117 4.559,-12.234 10.955,-12.234 C -4.639,-3.439 -2,-2.318 0,0 m 6.555,23.426 c 3.918,-3.918 5.918,-8.795 5.918,-14.631 0,-5.838 -2,-10.715 -5.918,-14.633 -3.918,-3.918 -8.635,-5.836 -14.311,-5.836 -5.678,0 -10.474,1.918 -14.392,5.836 -3.918,3.918 -5.838,8.795 -5.838,14.633 0,5.836 1.92,10.713 5.838,14.631 3.918,3.918 8.714,5.918 14.392,5.918 5.676,0 10.393,-2 14.311,-5.918"
             style="fill:#048299;fill-opacity:1;fill-rule:nonzero;stroke:none"
             id="path44" /></g><g
           id="g46"
           transform="translate(334.3457,331.3188)"><path
             d="M 0,0 V -30.543 H -9.115 V 8.637 H 12.066 V 0 Z"
             style="fill:#048299;fill-opacity:1;fill-rule:nonzero;stroke:none"
             id="path48" /></g><g
           id="g50"
           transform="translate(385.8359,334.8384)"><path
             d="M 0,0 C 3.52,4.396 7.916,6.076 11.754,6.076 22.068,6.076 27.346,0 27.346,-11.275 V -34.063 H 18.23 v 23.428 c 0,5.198 -2.718,8.475 -7.275,8.475 -5.357,0 -7.916,-3.678 -8.076,-9.594 v -22.309 h -9.035 v 23.428 c 0,5.198 -2.639,8.475 -7.196,8.475 -5.517,0 -8.076,-3.918 -8.076,-10.235 v -21.668 h -9.115 v 39.18 h 8.955 V 1.119 c 2.24,2.639 5.758,4.957 10.395,4.957 C -6.475,6.076 -2.318,4.316 0,0"
             style="fill:#048299;fill-opacity:1;fill-rule:nonzero;stroke:none"
             id="path52" /></g><g
           id="g54"
           transform="translate(436.2969,307.8931)"><path
             d="M 0,0 C 3.758,0 7.596,1.279 9.914,3.518 V 8.475 H 2 C -3.197,8.715 -5.596,7.195 -5.596,4.076 -5.596,1.918 -3.838,0 0,0 m -13.191,25.744 c 3.437,4.639 9.433,7.277 15.351,7.277 10.154,0 16.869,-5.117 16.869,-14.792 V -7.117 h -8.955 v 3.998 C 7.355,-6.158 2.398,-7.996 -2.078,-7.996 c -6.797,0 -12.793,4.316 -12.793,11.914 0,8.154 6.557,12.951 16.871,12.553 h 7.914 v 1.758 c 0,3.917 -3.197,6.556 -7.834,6.556 -3.918,0 -6.877,-2.078 -9.195,-4.957 z"
             style="fill:#048299;fill-opacity:1;fill-rule:nonzero;stroke:none"
             id="path56" /></g><path
           d="m 465.029,354.346 h 9.115 v -53.57 h -9.115 z"
           style="fill:#048299;fill-opacity:1;fill-rule:nonzero;stroke:none"
           id="path58" /><g
           id="g60"
           transform="translate(492.1992,324.3638)"><path
             d="m 0,0 h 16.551 c 0,4.797 -2.799,8.395 -8.155,8.395 C 3.678,8.395 0.239,5.197 0,0 m 25.426,-18.23 c -4.078,-4.159 -9.035,-6.237 -15.352,-6.237 -12.233,0 -20.069,8.315 -20.069,20.229 0,10.394 6.157,20.789 18.31,20.789 12.953,0 18.23,-10.635 17.911,-20.071 L 26.065,-7.996 H -0.48 c 0.879,-5.117 4.877,-8.236 10.314,-8.236 3.679,0 6.717,1.199 9.436,3.998 z"
             style="fill:#048299;fill-opacity:1;fill-rule:nonzero;stroke:none"
             id="path62" /></g><g
           id="g64"
           transform="translate(238.7852,238.8091)"><path
             d="m 0,0 c 2.719,-3.279 6.796,-4.877 11.034,-4.877 4.237,0 6.156,1.758 6.156,3.998 0,1.678 -1.199,2.877 -4.797,3.838 L 7.196,4.238 C -0.72,6.076 -4.718,9.994 -4.718,16.471 c 0,7.115 6.077,11.834 14.473,11.834 5.436,0 10.234,-2.08 14.472,-6.076 L 18.55,16.07 c -2.32,2.639 -5.438,4.399 -9.035,4.399 -3.279,0 -5.517,-1.6 -5.517,-3.838 0,-1.84 1.279,-2.879 3.838,-3.518 l 6.156,-1.439 c 7.996,-1.84 11.993,-5.918 11.993,-12.235 0,-7.115 -5.756,-12.152 -15.671,-12.152 -6.876,0 -12.473,2.559 -16.071,6.955 z"
             style="fill:#048299;fill-opacity:1;fill-rule:nonzero;stroke:none"
             id="path66" /></g><g
           id="g68"
           transform="translate(296.7529,266.1548)"><path
             d="M 0,0 H 9.115 V -39.18 H 0.16 v 3.998 c -2.159,-2.959 -5.837,-4.957 -10.473,-4.957 -9.675,0 -15.193,6.877 -15.193,17.35 V 0 h 9.115 v -22.789 c 0,-5.516 2.878,-9.115 7.756,-9.115 5.517,0 8.635,3.918 8.635,10.234 z"
             style="fill:#048299;fill-opacity:1;fill-rule:nonzero;stroke:none"
             id="path70" /></g><g
           id="g72"
           transform="translate(344.8867,237.6899)"><path
             d="m 0,0 c 1.839,2.398 2.799,5.357 2.799,8.795 0,3.437 -0.96,6.396 -2.799,8.795 -1.839,2.398 -4.397,3.597 -7.676,3.597 -6.717,0 -10.474,-5.357 -10.474,-12.392 0,-7.037 3.757,-12.393 10.474,-12.393 3.279,0 5.837,1.2 7.676,3.598 m -17.99,-7.355 v -17.752 h -9.115 v 53.572 h 8.955 v -3.998 c 2.478,2.797 6.877,4.957 11.274,4.957 5.597,0 9.994,-1.92 13.593,-5.838 3.597,-3.918 5.356,-8.795 5.356,-14.711 0,-5.918 -1.759,-10.795 -5.356,-14.713 -3.599,-3.838 -7.996,-5.756 -13.593,-5.756 -4.238,0 -8.556,1.838 -11.114,4.239"
             style="fill:#048299;fill-opacity:1;fill-rule:nonzero;stroke:none"
             id="path74" /></g><g
           id="g76"
           transform="translate(375.9092,250.563)"><path
             d="m 0,0 h 16.552 c 0,4.797 -2.799,8.395 -8.156,8.395 C 3.679,8.395 0.24,5.197 0,0 m 25.427,-18.23 c -4.078,-4.159 -9.035,-6.237 -15.352,-6.237 -12.233,0 -20.069,8.315 -20.069,20.229 0,9.275 4.877,18.551 14.632,20.388 L 6.797,29.982 H 19.03 L 11.514,16.311 C 22.148,14.711 26.386,5.117 26.226,-4.318 l -0.08,-3.678 H -0.479 c 0.879,-5.117 4.876,-8.236 10.314,-8.236 3.678,0 6.717,1.199 9.435,3.998 z"
             style="fill:#048299;fill-opacity:1;fill-rule:nonzero;stroke:none"
             id="path78" /></g><g
           id="g80"
           transform="translate(420.4453,257.5181)"><path
             d="M 0,0 V -30.543 H -9.115 V 8.637 H 12.633 V 0 Z"
             style="fill:#048299;fill-opacity:1;fill-rule:nonzero;stroke:none"
             id="path82" /></g><path
           d="m 441.313,266.155 h 9.115 v -39.18 h -9.115 z m 0.321,16.15 c 2.398,2.399 6.236,2.399 8.635,0 2.399,-2.318 2.399,-6.156 0,-8.555 -2.399,-2.4 -6.237,-2.4 -8.635,0 -2.399,2.399 -2.399,6.237 0,8.555"
           style="fill:#048299;fill-opacity:1;fill-rule:nonzero;stroke:none"
           id="path84" /><g
           id="g86"
           transform="translate(469.6982,250.563)"><path
             d="m 0,0 h 16.551 c 0,4.797 -2.799,8.395 -8.155,8.395 C 3.678,8.395 0.239,5.197 0,0 m 25.426,-18.23 c -4.078,-4.159 -9.035,-6.237 -15.352,-6.237 -12.233,0 -20.069,8.315 -20.069,20.229 0,10.394 6.157,20.789 18.31,20.789 12.954,0 18.23,-10.635 17.911,-20.071 L 26.065,-7.996 H -0.479 c 0.878,-5.117 4.876,-8.236 10.313,-8.236 3.679,0 6.717,1.199 9.436,3.998 z"
             style="fill:#048299;fill-opacity:1;fill-rule:nonzero;stroke:none"
             id="path88" /></g><g
           id="g90"
           transform="translate(528.7852,266.1548)"><path
             d="M 0,0 H 9.115 V -39.18 H 0.16 v 3.998 c -2.158,-2.959 -5.837,-4.957 -10.474,-4.957 -9.674,0 -15.192,6.877 -15.192,17.35 V 0 h 9.115 v -22.789 c 0,-5.516 2.879,-9.115 7.756,-9.115 5.517,0 8.635,3.918 8.635,10.234 z"
             style="fill:#048299;fill-opacity:1;fill-rule:nonzero;stroke:none"
             id="path92" /></g><g
           id="g94"
           transform="translate(558.8486,257.5181)"><path
             d="M 0,0 V -30.543 H -9.114 V 8.637 H 12.634 V 0 Z"
             style="fill:#048299;fill-opacity:1;fill-rule:nonzero;stroke:none"
             id="path96" /></g><g
           id="g98"
           transform="translate(586.9131,250.563)"><path
             d="m 0,0 h 16.551 c 0,4.797 -2.799,8.395 -8.155,8.395 C 3.678,8.395 0.239,5.197 0,0 m 25.426,-18.23 c -4.078,-4.159 -9.035,-6.237 -15.352,-6.237 -12.233,0 -20.069,8.315 -20.069,20.229 0,10.394 6.157,20.789 18.31,20.789 12.954,0 18.23,-10.635 17.911,-20.071 L 26.065,-7.996 H -0.479 c 0.878,-5.117 4.876,-8.236 10.313,-8.236 3.679,0 6.717,1.199 9.436,3.998 z"
             style="fill:#048299;fill-opacity:1;fill-rule:nonzero;stroke:none"
             id="path100" /></g><g
           id="g102"
           transform="translate(262.0937,163.8892)"><path
             d="m 0,0 c 1.839,2.398 2.799,5.357 2.799,8.795 0,3.437 -0.96,6.396 -2.799,8.795 -1.839,2.398 -4.397,3.597 -7.676,3.597 -6.716,0 -10.474,-5.357 -10.474,-12.392 0,-7.037 3.758,-12.393 10.474,-12.393 3.279,0 5.837,1.2 7.676,3.598 m -17.99,-7.355 v -17.752 h -9.115 v 53.572 h 8.955 v -3.998 c 2.479,2.799 6.877,4.957 11.274,4.957 5.597,0 9.994,-1.92 13.592,-5.838 3.598,-3.918 5.357,-8.795 5.357,-14.711 0,-5.916 -1.759,-10.795 -5.357,-14.713 -3.598,-3.838 -7.995,-5.756 -13.592,-5.756 -4.238,0 -8.556,1.838 -11.114,4.239"
             style="fill:#048299;fill-opacity:1;fill-rule:nonzero;stroke:none"
             id="path104" /></g><g
           id="g106"
           transform="translate(296.9219,160.2915)"><path
             d="M 0,0 C 3.758,0 7.596,1.279 9.914,3.518 V 8.475 H 2 C -3.197,8.715 -5.596,7.195 -5.596,4.076 -5.596,1.918 -3.838,0 0,0 m -13.193,25.746 c 3.439,4.637 9.435,7.275 15.351,7.275 10.156,0 16.871,-5.117 16.871,-14.792 V -7.117 h -8.955 v 3.998 C 7.355,-6.158 2.398,-7.996 -2.078,-7.996 c -6.797,0 -12.793,4.318 -12.793,11.914 0,8.154 6.557,12.951 16.871,12.553 h 7.914 v 1.758 c 0,3.917 -3.197,6.556 -7.834,6.556 -3.918,0 -6.877,-2.078 -9.195,-4.957 z"
             style="fill:#048299;fill-opacity:1;fill-rule:nonzero;stroke:none"
             id="path108" /></g><g
           id="g110"
           transform="translate(336.3115,183.7173)"><path
             d="M 0,0 V -30.543 H -9.114 V 8.637 H 12.634 V 0 Z"
             style="fill:#048299;fill-opacity:1;fill-rule:nonzero;stroke:none"
             id="path112" /></g><path
           d="m 358.031,192.354 h 9.115 v -39.18 h -9.115 z m 0.321,16.15 c 2.398,2.399 6.236,2.399 8.634,0 2.399,-2.318 2.399,-6.156 0,-8.554 -2.398,-2.401 -6.236,-2.401 -8.634,0 -2.399,2.398 -2.399,6.236 0,8.554"
           style="fill:#048299;fill-opacity:1;fill-rule:nonzero;stroke:none"
           id="path114" /><g
           id="g116"
           transform="translate(382.709,165.0083)"><path
             d="m 0,0 c 2.719,-3.277 6.796,-4.877 11.034,-4.877 4.237,0 6.156,1.758 6.156,3.998 0,1.678 -1.199,2.877 -4.796,3.838 L 7.196,4.238 C -0.72,6.076 -4.718,9.994 -4.718,16.471 c 0,7.117 6.077,11.834 14.473,11.834 5.436,0 10.234,-2.08 14.472,-6.076 L 18.55,16.07 c -2.319,2.639 -5.438,4.399 -9.035,4.399 -3.279,0 -5.517,-1.6 -5.517,-3.838 0,-1.84 1.279,-2.879 3.838,-3.518 l 6.156,-1.439 c 7.995,-1.84 11.993,-5.918 11.993,-12.235 0,-7.115 -5.756,-12.152 -15.671,-12.152 -6.876,0 -12.473,2.559 -16.071,6.955 z"
             style="fill:#048299;fill-opacity:1;fill-rule:nonzero;stroke:none"
             id="path118" /></g><path
           d="m 421.145,168.766 h 51.148 v 7.996 h -51.148 z"
           style="fill:#048299;fill-opacity:1;fill-rule:nonzero;stroke:none"
           id="path120" /><g
           id="g122"
           transform="translate(489.4766,165.0083)"><path
             d="m 0,0 c 2.719,-3.277 6.796,-4.877 11.034,-4.877 4.237,0 6.156,1.758 6.156,3.998 0,1.678 -1.199,2.877 -4.797,3.838 L 7.196,4.238 C -0.72,6.076 -4.718,9.994 -4.718,16.471 c 0,7.117 6.077,11.834 14.473,11.834 5.436,0 10.234,-2.08 14.472,-6.076 L 18.55,16.07 c -2.32,2.639 -5.438,4.399 -9.035,4.399 -3.279,0 -5.517,-1.6 -5.517,-3.838 0,-1.84 1.279,-2.879 3.838,-3.518 l 6.156,-1.439 c 7.996,-1.84 11.993,-5.918 11.993,-12.235 0,-7.115 -5.756,-12.152 -15.671,-12.152 -6.876,0 -12.473,2.559 -16.071,6.955 z"
             style="fill:#048299;fill-opacity:1;fill-rule:nonzero;stroke:none"
             id="path124" /></g><g
           id="g126"
           transform="translate(537.3857,160.2915)"><path
             d="M 0,0 C 3.758,0 7.596,1.279 9.914,3.518 V 8.475 H 1.999 C -3.198,8.715 -5.597,7.195 -5.597,4.076 -5.597,1.918 -3.838,0 0,0 m -13.192,25.746 c 3.437,4.637 9.434,7.275 15.351,7.275 10.154,0 16.87,-5.117 16.87,-14.792 V -7.117 h -8.955 v 3.998 C 7.355,-6.158 2.398,-7.996 -2.079,-7.996 c -6.796,0 -12.793,4.318 -12.793,11.914 0,8.154 6.557,12.951 16.871,12.553 h 7.915 v 1.758 c 0,3.917 -3.198,6.556 -7.835,6.556 -3.918,0 -6.877,-2.078 -9.195,-4.957 z"
             style="fill:#048299;fill-opacity:1;fill-rule:nonzero;stroke:none"
             id="path128" /></g><g
           id="g130"
           transform="translate(594.6055,180.1196)"><path
             d="m 0,0 c -2.639,3.279 -5.598,4.877 -8.795,4.877 -6.158,0 -10.635,-5.117 -10.635,-12.232 0,-7.118 4.557,-12.235 10.715,-12.235 4.236,0 6.795,1.68 9.514,5.277 l 6.076,-6.236 c -3.838,-4.957 -9.193,-7.275 -15.91,-7.275 -5.438,0 -10.074,1.918 -13.912,5.836 -3.838,3.918 -5.758,8.795 -5.758,14.633 0,5.835 1.92,10.714 5.758,14.63 3.838,3.918 8.474,5.918 13.912,5.918 6.076,0 11.113,-2.238 15.031,-6.716 z"
             style="fill:#048299;fill-opacity:1;fill-rule:nonzero;stroke:none"
             id="path132" /></g><path
           d="m 610.887,206.745 h 9.115 v -53.57 h -9.115 z"
           style="fill:#048299;fill-opacity:1;fill-rule:nonzero;stroke:none"
           id="path134" /><g
           id="g136"
           transform="translate(644.4395,160.2915)"><path
             d="M 0,0 C 3.758,0 7.596,1.279 9.914,3.518 V 8.475 H 2 C -3.197,8.715 -5.596,7.195 -5.596,4.076 -5.596,1.918 -3.838,0 0,0 m -13.193,25.746 c 3.439,4.637 9.435,7.275 15.351,7.275 10.156,0 16.871,-5.117 16.871,-14.792 V -7.117 h -8.955 v 3.998 C 7.355,-6.158 2.398,-7.996 -2.078,-7.996 c -6.797,0 -12.793,4.318 -12.793,11.914 0,8.154 6.557,12.951 16.871,12.553 h 7.914 v 1.758 c 0,3.917 -3.197,6.556 -7.834,6.556 -3.918,0 -6.877,-2.078 -9.195,-4.957 z"
             style="fill:#048299;fill-opacity:1;fill-rule:nonzero;stroke:none"
             id="path138" /></g><g
           id="g140"
           transform="translate(688.8672,138.7817)"><path
             d="M 0,0 H -9.596 L -3.918,13.914 -19.43,53.572 H -9.035 L 1.199,25.268 11.593,53.572 h 9.915 z"
             style="fill:#048299;fill-opacity:1;fill-rule:nonzero;stroke:none"
             id="path142" /></g><path
           d="M 900.74,242.584 H 627.386 v 7.994 H 900.74 Z"
           style="fill:#048299;fill-opacity:1;fill-rule:nonzero;stroke:none"
           id="path144" /><path
           d="M 900.684,390.227 H 437.895 v 7.994 h 462.789 z"
           style="fill:#048299;fill-opacity:1;fill-rule:nonzero;stroke:none"
           id="path146" /><path
           d="M 900.769,168.766 H 721.404 v 7.994 h 179.365 z"
           style="fill:#048299;fill-opacity:1;fill-rule:nonzero;stroke:none"
           id="path148" /><path
           d="M 900.83,316.403 H 533.059 v 7.994 H 900.83 Z"
           style="fill:#048299;fill-opacity:1;fill-rule:nonzero;stroke:none"
           id="path150" /></g></g></g></svg>
