<svg width="83" height="83" viewBox="0 0 83 83" fill="none" xmlns="http://www.w3.org/2000/svg">
<path d="M41.3368 76.8971C41.3368 80.5588 40.1211 83 38.5 83C36.8789 83 35.6632 80.5588 35.6632 76.8971C35.6632 73.2353 37.6895 67.1324 38.5 67.1324C39.3105 67.1324 41.3368 73.2353 41.3368 76.8971Z" fill="#62003C"/>
<path fill-rule="evenodd" clip-rule="evenodd" d="M38.5 0C36.0684 0 35.6632 13.4265 35.6632 13.4265C35.6632 13.4265 28.7737 14.6471 25.1263 22.3775C24.7073 23.2655 24.4007 24.1427 24.186 25H33V27H31V29H29V31H27.5V29H25.5V27H23.8386C23.277 32.6651 26.3421 37.0245 26.3421 37.0245C26.3421 37.0245 19.4526 41.0931 19.4526 32.1422C19.4526 23.1912 12.9684 21.5637 12.9684 21.5637C12.9684 21.5637 14.5895 26.0392 13.3737 30.1078C12.1579 34.1765 13.7789 38.652 13.7789 38.652C13.7789 38.652 0 39.0588 0 41.5C0 43.9412 22.6947 47.1961 22.6947 47.1961C22.6947 47.1961 19.819 50.0441 18.2368 53.299C16.6547 56.5539 16.5512 61.6884 17.4263 61.0294C18.0716 60.5436 18.4104 60.1652 18.8599 59.6633C19.5396 58.9044 20.4723 57.8629 23.1 55.7402C27.4654 52.2136 29.9895 51.6716 29.9895 51.6716C29.9895 51.6716 30.3381 52.8922 29.1789 58.1814C28.6367 60.6555 28.0697 61.8833 27.5783 62.9475C27.0191 64.1583 26.5578 65.1572 26.3421 67.5392C25.9368 72.0147 28.3684 76.4902 28.7737 76.4902C28.8859 76.4902 28.8428 76.194 28.7648 75.6578C28.561 74.2568 28.1188 71.2172 29.5842 67.5392C30.0848 66.2829 31.0491 65.1015 32.2067 63.6835C33.0241 62.6821 33.9378 61.5628 34.8526 60.2157C36.2664 58.1338 37.198 54.8868 37.7919 52.8168C38.1265 51.6505 38.354 50.8578 38.5 50.8578C38.646 50.8578 38.8735 51.6505 39.2081 52.8168C39.802 54.8868 40.7336 58.1338 42.1474 60.2157C43.0622 61.5628 43.9759 62.6821 44.7933 63.6835C45.9509 65.1015 46.9152 66.2829 47.4158 67.5392C48.8812 71.2172 48.439 74.2568 48.2352 75.6578C48.1572 76.194 48.1141 76.4902 48.2263 76.4902C48.6316 76.4902 51.0632 72.0147 50.6579 67.5392C50.4422 65.1572 49.9809 64.1583 49.4217 62.9475C48.9303 61.8833 48.3633 60.6555 47.8211 58.1814C46.6619 52.8922 47.0105 51.6716 47.0105 51.6716C47.0105 51.6716 49.5346 52.2136 53.9 55.7402C56.5276 57.8629 57.4603 58.9043 58.14 59.6632C58.5895 60.1651 58.9284 60.5435 59.5737 61.0294C60.4488 61.6884 60.3453 56.5539 58.7632 53.299C57.181 50.0441 54.3053 47.1961 54.3053 47.1961C54.3053 47.1961 77 43.9412 77 41.5C77 39.0588 63.2211 38.652 63.2211 38.652C63.2211 38.652 64.8421 34.1765 63.6263 30.1078C62.4105 26.0392 64.0316 21.5637 64.0316 21.5637C64.0316 21.5637 57.5474 23.1912 57.5474 32.1422C57.5474 41.0931 50.6579 37.0245 50.6579 37.0245C50.6579 37.0245 53.722 32.6665 53.1617 27.0028L51.5 27V29H49.5V31H45V29H47V27H49V25H52.814C52.5993 24.1427 52.2927 23.2655 51.8737 22.3775C48.2263 14.6471 41.3368 13.4265 41.3368 13.4265C41.3368 13.4265 40.9316 0 38.5 0ZM47 27V25H35V27H33V29H31V31H35.5V29H37.5V27H39.5V29H41.5V31H43V29H45V27H47Z" fill="#62003C"/>
</svg>
