<svg width="284" height="109" viewBox="0 0 284 109" fill="none" xmlns="http://www.w3.org/2000/svg">
<path d="M3.96025 82.6V58.1H15.1603C17.4003 58.1 19.3253 58.4616 20.9353 59.185C22.5686 59.9083 23.8286 60.9583 24.7153 62.335C25.6019 63.6883 26.0453 65.2983 26.0453 67.165C26.0453 69.0083 25.6019 70.6066 24.7153 71.96C23.8286 73.3133 22.5686 74.3633 20.9353 75.11C19.3253 75.8333 17.4003 76.195 15.1603 76.195H7.81025L10.8903 73.185V82.6H3.96025ZM10.8903 73.92L7.81025 70.735H14.7403C16.1869 70.735 17.2603 70.42 17.9603 69.79C18.6836 69.16 19.0453 68.285 19.0453 67.165C19.0453 66.0216 18.6836 65.135 17.9603 64.505C17.2603 63.875 16.1869 63.56 14.7403 63.56H7.81025L10.8903 60.375V73.92ZM25.6037 82.6L36.4187 58.1H43.2437L54.0937 82.6H46.8837L38.4137 61.495H41.1437L32.6737 82.6H25.6037ZM31.5187 77.84L33.3037 72.73H45.2737L47.0587 77.84H31.5187ZM56.4083 82.6V58.1H67.6083C69.8483 58.1 71.7733 58.4616 73.3833 59.185C75.0166 59.9083 76.2766 60.9583 77.1633 62.335C78.05 63.6883 78.4933 65.2983 78.4933 67.165C78.4933 69.0083 78.05 70.6066 77.1633 71.96C76.2766 73.29 75.0166 74.3166 73.3833 75.04C71.7733 75.74 69.8483 76.09 67.6083 76.09H60.2583L63.3383 73.185V82.6H56.4083ZM71.5633 82.6L65.4733 73.675H72.8583L78.9833 82.6H71.5633ZM63.3383 73.92L60.2583 70.735H67.1883C68.635 70.735 69.7083 70.42 70.4083 69.79C71.1316 69.16 71.4933 68.285 71.4933 67.165C71.4933 66.0216 71.1316 65.135 70.4083 64.505C69.7083 63.875 68.635 63.56 67.1883 63.56H60.2583L63.3383 60.375V73.92ZM82.6665 82.6V58.1H89.5965V82.6H82.6665ZM103.487 83.09C101.48 83.09 99.5435 82.845 97.6769 82.355C95.8335 81.8416 94.3285 81.1883 93.1619 80.395L95.4369 75.285C96.5335 75.985 97.7935 76.5683 99.2169 77.035C100.664 77.4783 102.099 77.7 103.522 77.7C104.479 77.7 105.249 77.6183 105.832 77.455C106.415 77.2683 106.835 77.035 107.092 76.755C107.372 76.4516 107.512 76.1016 107.512 75.705C107.512 75.145 107.255 74.7016 106.742 74.375C106.229 74.0483 105.564 73.78 104.747 73.57C103.93 73.36 103.02 73.15 102.017 72.94C101.037 72.73 100.045 72.4616 99.0419 72.135C98.0619 71.8083 97.1635 71.3883 96.3469 70.875C95.5302 70.3383 94.8652 69.65 94.3519 68.81C93.8385 67.9466 93.5819 66.8616 93.5819 65.555C93.5819 64.085 93.9785 62.755 94.7719 61.565C95.5885 60.375 96.8019 59.4183 98.4119 58.695C100.022 57.9716 102.029 57.61 104.432 57.61C106.042 57.61 107.617 57.7966 109.157 58.17C110.72 58.52 112.109 59.045 113.322 59.745L111.187 64.89C110.02 64.26 108.865 63.7933 107.722 63.49C106.579 63.1633 105.47 63 104.397 63C103.44 63 102.67 63.105 102.087 63.315C101.504 63.5016 101.084 63.7583 100.827 64.085C100.57 64.4116 100.442 64.785 100.442 65.205C100.442 65.7416 100.687 66.1733 101.177 66.5C101.69 66.8033 102.355 67.06 103.172 67.27C104.012 67.4566 104.922 67.655 105.902 67.865C106.905 68.075 107.897 68.3433 108.877 68.67C109.88 68.9733 110.79 69.3933 111.607 69.93C112.424 70.4433 113.077 71.1316 113.567 71.995C114.08 72.835 114.337 73.8966 114.337 75.18C114.337 76.6033 113.929 77.9216 113.112 79.135C112.319 80.325 111.117 81.2816 109.507 82.005C107.92 82.7283 105.914 83.09 103.487 83.09ZM117.528 75.18V70.07H127.748V75.18H117.528ZM140.417 83.09C138.411 83.09 136.474 82.845 134.607 82.355C132.764 81.8416 131.259 81.1883 130.092 80.395L132.367 75.285C133.464 75.985 134.724 76.5683 136.147 77.035C137.594 77.4783 139.029 77.7 140.452 77.7C141.409 77.7 142.179 77.6183 142.762 77.455C143.346 77.2683 143.766 77.035 144.022 76.755C144.302 76.4516 144.442 76.1016 144.442 75.705C144.442 75.145 144.186 74.7016 143.672 74.375C143.159 74.0483 142.494 73.78 141.677 73.57C140.861 73.36 139.951 73.15 138.947 72.94C137.967 72.73 136.976 72.4616 135.972 72.135C134.992 71.8083 134.094 71.3883 133.277 70.875C132.461 70.3383 131.796 69.65 131.282 68.81C130.769 67.9466 130.512 66.8616 130.512 65.555C130.512 64.085 130.909 62.755 131.702 61.565C132.519 60.375 133.732 59.4183 135.342 58.695C136.952 57.9716 138.959 57.61 141.362 57.61C142.972 57.61 144.547 57.7966 146.087 58.17C147.651 58.52 149.039 59.045 150.252 59.745L148.117 64.89C146.951 64.26 145.796 63.7933 144.652 63.49C143.509 63.1633 142.401 63 141.327 63C140.371 63 139.601 63.105 139.017 63.315C138.434 63.5016 138.014 63.7583 137.757 64.085C137.501 64.4116 137.372 64.785 137.372 65.205C137.372 65.7416 137.617 66.1733 138.107 66.5C138.621 66.8033 139.286 67.06 140.102 67.27C140.942 67.4566 141.852 67.655 142.832 67.865C143.836 68.075 144.827 68.3433 145.807 68.67C146.811 68.9733 147.721 69.3933 148.537 69.93C149.354 70.4433 150.007 71.1316 150.497 71.995C151.011 72.835 151.267 73.8966 151.267 75.18C151.267 76.6033 150.859 77.9216 150.042 79.135C149.249 80.325 148.047 81.2816 146.437 82.005C144.851 82.7283 142.844 83.09 140.417 83.09ZM151.878 82.6L162.693 58.1H169.518L180.368 82.6H173.158L164.688 61.495H167.418L158.948 82.6H151.878ZM157.793 77.84L159.578 72.73H171.548L173.333 77.84H157.793ZM194.556 83.09C192.62 83.09 190.823 82.7866 189.166 82.18C187.533 81.55 186.11 80.6633 184.896 79.52C183.706 78.3766 182.773 77.035 182.096 75.495C181.42 73.9316 181.081 72.2166 181.081 70.35C181.081 68.4833 181.42 66.78 182.096 65.24C182.773 63.6766 183.706 62.3233 184.896 61.18C186.11 60.0366 187.533 59.1616 189.166 58.555C190.823 57.925 192.62 57.61 194.556 57.61C196.82 57.61 198.838 58.0066 200.611 58.8C202.408 59.5933 203.901 60.7366 205.091 62.23L200.681 66.22C199.888 65.2866 199.013 64.575 198.056 64.085C197.123 63.595 196.073 63.35 194.906 63.35C193.903 63.35 192.981 63.5133 192.141 63.84C191.301 64.1666 190.578 64.645 189.971 65.275C189.388 65.8816 188.921 66.6166 188.571 67.48C188.245 68.3433 188.081 69.3 188.081 70.35C188.081 71.4 188.245 72.3566 188.571 73.22C188.921 74.0833 189.388 74.83 189.971 75.46C190.578 76.0666 191.301 76.5333 192.141 76.86C192.981 77.1866 193.903 77.35 194.906 77.35C196.073 77.35 197.123 77.105 198.056 76.615C199.013 76.125 199.888 75.4133 200.681 74.48L205.091 78.47C203.901 79.94 202.408 81.0833 200.611 81.9C198.838 82.6933 196.82 83.09 194.556 83.09ZM208.531 82.6V58.1H215.461V77.105H227.151V82.6H208.531ZM227.543 82.6L238.358 58.1H245.183L256.033 82.6H248.823L240.353 61.495H243.083L234.613 82.6H227.543ZM233.458 77.84L235.243 72.73H247.213L248.998 77.84H233.458ZM263.004 82.6V72.24L264.614 76.405L253.659 58.1H260.974L268.884 71.365H264.649L272.594 58.1H279.314L268.394 76.405L269.934 72.24V82.6H263.004Z" fill="black"/>
<path d="M20.9 48.25C18.3 48.25 15.8833 47.8167 13.65 46.95C11.45 46.05 9.53333 44.8 7.9 43.2C6.26667 41.6 5 39.7333 4.1 37.6C3.2 35.4333 2.75 33.0667 2.75 30.5C2.75 27.9333 3.2 25.5833 4.1 23.45C5 21.2833 6.26667 19.4 7.9 17.8C9.56667 16.2 11.5 14.9667 13.7 14.1C15.9 13.2 18.3 12.75 20.9 12.75C23.3667 12.75 25.6667 13.15 27.8 13.95C29.9667 14.75 31.8167 15.9667 33.35 17.6L31.75 19.25C30.25 17.7833 28.5833 16.7333 26.75 16.1C24.95 15.4333 23.0333 15.1 21 15.1C18.7667 15.1 16.6833 15.4833 14.75 16.25C12.85 17.0167 11.1833 18.1 9.75 19.5C8.35 20.9 7.25 22.5333 6.45 24.4C5.68333 26.2667 5.3 28.3 5.3 30.5C5.3 32.7 5.68333 34.7333 6.45 36.6C7.25 38.4667 8.35 40.1 9.75 41.5C11.1833 42.9 12.85 43.9833 14.75 44.75C16.6833 45.5167 18.7667 45.9 21 45.9C23.0333 45.9 24.95 45.5833 26.75 44.95C28.5833 44.2833 30.25 43.2 31.75 41.7L33.35 43.35C31.8167 44.9833 29.9667 46.2167 27.8 47.05C25.6667 47.85 23.3667 48.25 20.9 48.25ZM41.891 48V13H54.441C57.3744 13 59.891 13.4667 61.991 14.4C64.091 15.3333 65.7077 16.6833 66.841 18.45C67.9744 20.1833 68.541 22.3 68.541 24.8C68.541 27.2333 67.9744 29.3333 66.841 31.1C65.7077 32.8667 64.091 34.2167 61.991 35.15C59.891 36.0833 57.3744 36.55 54.441 36.55H43.291L44.441 35.35V48H41.891ZM44.441 35.5L43.291 34.25H54.441C58.2077 34.25 61.0577 33.4333 62.991 31.8C64.9577 30.1333 65.941 27.8 65.941 24.8C65.941 21.7667 64.9577 19.4333 62.991 17.8C61.0577 16.1333 58.2077 15.3 54.441 15.3H43.291L44.441 14.05V35.5ZM79.3949 29.1H98.3449V31.35H79.3949V29.1ZM79.6949 45.7H101.295V48H77.1449V13H100.545V15.3H79.6949V45.7ZM119.792 48.25C117.192 48.25 114.726 47.8167 112.392 46.95C110.092 46.05 108.309 44.9 107.042 43.5L108.192 41.6C109.392 42.8333 111.026 43.8833 113.092 44.75C115.192 45.5833 117.409 46 119.742 46C122.076 46 123.976 45.7 125.442 45.1C126.942 44.4667 128.042 43.6333 128.742 42.6C129.476 41.5667 129.842 40.4167 129.842 39.15C129.842 37.65 129.442 36.45 128.642 35.55C127.842 34.65 126.792 33.9333 125.492 33.4C124.192 32.8667 122.776 32.4167 121.242 32.05C119.709 31.6833 118.159 31.3 116.592 30.9C115.026 30.4667 113.592 29.9167 112.292 29.25C110.992 28.5833 109.942 27.6833 109.142 26.55C108.376 25.3833 107.992 23.8833 107.992 22.05C107.992 20.3833 108.426 18.85 109.292 17.45C110.159 16.05 111.509 14.9167 113.342 14.05C115.176 13.1833 117.526 12.75 120.392 12.75C122.326 12.75 124.226 13.0333 126.092 13.6C127.992 14.1667 129.609 14.9333 130.942 15.9L129.992 17.95C128.526 16.95 126.942 16.2167 125.242 15.75C123.576 15.25 121.959 15 120.392 15C118.159 15 116.309 15.3167 114.842 15.95C113.376 16.5833 112.292 17.4333 111.592 18.5C110.892 19.5333 110.542 20.7 110.542 22C110.542 23.5 110.926 24.7 111.692 25.6C112.492 26.5 113.542 27.2167 114.842 27.75C116.142 28.2833 117.576 28.7333 119.142 29.1C120.709 29.4667 122.259 29.8667 123.792 30.3C125.326 30.7 126.742 31.2333 128.042 31.9C129.342 32.5667 130.392 33.4667 131.192 34.6C131.992 35.7333 132.392 37.2 132.392 39C132.392 40.6333 131.942 42.1667 131.042 43.6C130.142 45 128.759 46.1333 126.892 47C125.059 47.8333 122.692 48.25 119.792 48.25Z" fill="black"/>
<path d="M3.68 104V92.8H5.28V104H3.68ZM8.79312 104V92.8H13.1611C14.1425 92.8 14.9798 92.9547 15.6731 93.264C16.3665 93.5733 16.8998 94.0213 17.2731 94.608C17.6465 95.1947 17.8331 95.8933 17.8331 96.704C17.8331 97.5147 17.6465 98.2133 17.2731 98.8C16.8998 99.376 16.3665 99.824 15.6731 100.144C14.9798 100.453 14.1425 100.608 13.1611 100.608H9.67313L10.3931 99.856V104H8.79312ZM10.3931 100.016L9.67313 99.216H13.1131C14.1371 99.216 14.9105 98.9973 15.4331 98.56C15.9665 98.1227 16.2331 97.504 16.2331 96.704C16.2331 95.904 15.9665 95.2853 15.4331 94.848C14.9105 94.4107 14.1371 94.192 13.1131 94.192H9.67313L10.3931 93.392V100.016ZM20.3437 104V92.8H24.7118C25.6931 92.8 26.5304 92.9547 27.2238 93.264C27.9171 93.5733 28.4504 94.0213 28.8238 94.608C29.1971 95.1947 29.3837 95.8933 29.3837 96.704C29.3837 97.5147 29.1971 98.2133 28.8238 98.8C28.4504 99.376 27.9171 99.824 27.2238 100.144C26.5304 100.453 25.6931 100.608 24.7118 100.608H21.2237L21.9437 99.856V104H20.3437ZM21.9437 100.016L21.2237 99.216H24.6638C25.6878 99.216 26.4611 98.9973 26.9838 98.56C27.5171 98.1227 27.7838 97.504 27.7838 96.704C27.7838 95.904 27.5171 95.2853 26.9838 94.848C26.4611 94.4107 25.6878 94.192 24.6638 94.192H21.2237L21.9437 93.392V100.016Z" fill="black"/>
<path d="M33.14 104L35.42 101.04L35.41 101.53L33.24 98.7H34.31L35.97 100.88H35.56L37.22 98.7H38.27L36.07 101.55L36.08 101.04L38.38 104H37.29L35.54 101.68L35.93 101.74L34.21 104H33.14Z" fill="black"/>
<path d="M47.32 104.128C45.848 104.128 44.6907 103.707 43.848 102.864C43.0053 102.021 42.584 100.789 42.584 99.168V92.8H44.184V99.104C44.184 100.352 44.456 101.264 45 101.84C45.5547 102.416 46.3333 102.704 47.336 102.704C48.3493 102.704 49.128 102.416 49.672 101.84C50.2267 101.264 50.504 100.352 50.504 99.104V92.8H52.056V99.168C52.056 100.789 51.6347 102.021 50.792 102.864C49.96 103.707 48.8027 104.128 47.32 104.128ZM55.4962 104V92.8H59.8643C60.8456 92.8 61.6829 92.9547 62.3763 93.264C63.0696 93.5733 63.6029 94.0213 63.9763 94.608C64.3496 95.1947 64.5363 95.8933 64.5363 96.704C64.5363 97.5147 64.3496 98.2133 63.9763 98.8C63.6029 99.376 63.0696 99.824 62.3763 100.144C61.6829 100.453 60.8456 100.608 59.8643 100.608H56.3763L57.0963 99.856V104H55.4962ZM57.0963 100.016L56.3763 99.216H59.8163C60.8403 99.216 61.6136 98.9973 62.1363 98.56C62.6696 98.1227 62.9363 97.504 62.9363 96.704C62.9363 95.904 62.6696 95.2853 62.1363 94.848C61.6136 94.4107 60.8403 94.192 59.8163 94.192H56.3763L57.0963 93.392V100.016ZM70.4671 104.128C69.6138 104.128 68.7978 104 68.0191 103.744C67.2405 103.477 66.6271 103.136 66.1791 102.72L66.7711 101.472C67.1978 101.845 67.7418 102.155 68.4031 102.4C69.0645 102.645 69.7525 102.768 70.4671 102.768C71.1178 102.768 71.6458 102.693 72.0511 102.544C72.4565 102.395 72.7551 102.192 72.9471 101.936C73.1391 101.669 73.2351 101.371 73.2351 101.04C73.2351 100.656 73.1071 100.347 72.8511 100.112C72.6058 99.8773 72.2805 99.6907 71.8751 99.552C71.4805 99.4027 71.0431 99.2747 70.5631 99.168C70.0831 99.0613 69.5978 98.9387 69.1071 98.8C68.6271 98.6507 68.1845 98.464 67.7791 98.24C67.3845 98.016 67.0645 97.7173 66.8191 97.344C66.5738 96.96 66.4511 96.4693 66.4511 95.872C66.4511 95.296 66.6005 94.768 66.8991 94.288C67.2085 93.7973 67.6778 93.408 68.3071 93.12C68.9471 92.8213 69.7578 92.672 70.7391 92.672C71.3898 92.672 72.0351 92.7573 72.6751 92.928C73.3151 93.0987 73.8698 93.344 74.3391 93.664L73.8111 94.944C73.3311 94.624 72.8245 94.3947 72.2911 94.256C71.7578 94.1067 71.2405 94.032 70.7391 94.032C70.1098 94.032 69.5925 94.112 69.1871 94.272C68.7818 94.432 68.4831 94.6453 68.2911 94.912C68.1098 95.1787 68.0191 95.4773 68.0191 95.808C68.0191 96.2027 68.1418 96.5173 68.3871 96.752C68.6431 96.9867 68.9685 97.1733 69.3631 97.312C69.7685 97.4507 70.2111 97.5787 70.6911 97.696C71.1711 97.8027 71.6511 97.9253 72.1311 98.064C72.6218 98.2027 73.0645 98.384 73.4591 98.608C73.8645 98.832 74.1898 99.1307 74.4351 99.504C74.6805 99.8773 74.8031 100.357 74.8031 100.944C74.8031 101.509 74.6485 102.037 74.3391 102.528C74.0298 103.008 73.5498 103.397 72.8991 103.696C72.2591 103.984 71.4485 104.128 70.4671 104.128Z" fill="black"/>
<path d="M78.14 104L80.42 101.04L80.41 101.53L78.24 98.7H79.31L80.97 100.88H80.56L82.22 98.7H83.27L81.07 101.55L81.08 101.04L83.38 104H82.29L80.54 101.68L80.93 101.74L79.21 104H78.14Z" fill="black"/>
<path d="M95.712 92.8H97.312V104H95.712V92.8ZM89.28 104H87.68V92.8H89.28V104ZM95.856 99.008H89.12V97.616H95.856V99.008ZM102.28 97.632H108.04V98.992H102.28V97.632ZM102.424 102.608H108.952V104H100.824V92.8H108.728V94.192H102.424V102.608ZM116.695 104.128C115.842 104.128 115.053 103.989 114.327 103.712C113.613 103.424 112.989 103.024 112.455 102.512C111.933 101.989 111.522 101.381 111.223 100.688C110.925 99.9947 110.775 99.232 110.775 98.4C110.775 97.568 110.925 96.8053 111.223 96.112C111.522 95.4187 111.938 94.816 112.471 94.304C113.005 93.7813 113.629 93.3813 114.344 93.104C115.069 92.816 115.858 92.672 116.712 92.672C117.575 92.672 118.37 92.8213 119.095 93.12C119.832 93.408 120.456 93.84 120.968 94.416L119.927 95.424C119.501 94.976 119.021 94.6453 118.488 94.432C117.954 94.208 117.383 94.096 116.775 94.096C116.146 94.096 115.56 94.2027 115.016 94.416C114.482 94.6293 114.018 94.928 113.623 95.312C113.229 95.696 112.919 96.1547 112.695 96.688C112.482 97.2107 112.375 97.7813 112.375 98.4C112.375 99.0187 112.482 99.5947 112.695 100.128C112.919 100.651 113.229 101.104 113.623 101.488C114.018 101.872 114.482 102.171 115.016 102.384C115.56 102.597 116.146 102.704 116.775 102.704C117.383 102.704 117.954 102.597 118.488 102.384C119.021 102.16 119.501 101.819 119.927 101.36L120.968 102.368C120.456 102.944 119.832 103.381 119.095 103.68C118.37 103.979 117.57 104.128 116.695 104.128Z" fill="black"/>
<path d="M125.14 104L127.42 101.04L127.41 101.53L125.24 98.7H126.31L127.97 100.88H127.56L129.22 98.7H130.27L128.07 101.55L128.08 101.04L130.38 104H129.29L127.54 101.68L127.93 101.74L126.21 104H125.14Z" fill="black"/>
<path d="M136.136 97.632H141.896V98.992H136.136V97.632ZM136.28 102.608H142.808V104H134.68V92.8H142.584V94.192H136.28V102.608ZM145.559 104V92.8H146.871L154.279 102H153.591V92.8H155.191V104H153.879L146.471 94.8H147.159V104H145.559ZM161.967 104.128C161.114 104.128 160.298 104 159.519 103.744C158.74 103.477 158.127 103.136 157.679 102.72L158.271 101.472C158.698 101.845 159.242 102.155 159.903 102.4C160.564 102.645 161.252 102.768 161.967 102.768C162.618 102.768 163.146 102.693 163.551 102.544C163.956 102.395 164.255 102.192 164.447 101.936C164.639 101.669 164.735 101.371 164.735 101.04C164.735 100.656 164.607 100.347 164.351 100.112C164.106 99.8773 163.78 99.6907 163.375 99.552C162.98 99.4027 162.543 99.2747 162.063 99.168C161.583 99.0613 161.098 98.9387 160.607 98.8C160.127 98.6507 159.684 98.464 159.279 98.24C158.884 98.016 158.564 97.7173 158.319 97.344C158.074 96.96 157.951 96.4693 157.951 95.872C157.951 95.296 158.1 94.768 158.399 94.288C158.708 93.7973 159.178 93.408 159.807 93.12C160.447 92.8213 161.258 92.672 162.239 92.672C162.89 92.672 163.535 92.7573 164.175 92.928C164.815 93.0987 165.37 93.344 165.839 93.664L165.311 94.944C164.831 94.624 164.324 94.3947 163.791 94.256C163.258 94.1067 162.74 94.032 162.239 94.032C161.61 94.032 161.092 94.112 160.687 94.272C160.282 94.432 159.983 94.6453 159.791 94.912C159.61 95.1787 159.519 95.4773 159.519 95.808C159.519 96.2027 159.642 96.5173 159.887 96.752C160.143 96.9867 160.468 97.1733 160.863 97.312C161.268 97.4507 161.711 97.5787 162.191 97.696C162.671 97.8027 163.151 97.9253 163.631 98.064C164.122 98.2027 164.564 98.384 164.959 98.608C165.364 98.832 165.69 99.1307 165.935 99.504C166.18 99.8773 166.303 100.357 166.303 100.944C166.303 101.509 166.148 102.037 165.839 102.528C165.53 103.008 165.05 103.397 164.399 103.696C163.759 103.984 162.948 104.128 161.967 104.128Z" fill="black"/>
<path d="M170.14 104L172.42 101.04L172.41 101.53L170.24 98.7H171.31L172.97 100.88H172.56L174.22 98.7H175.27L173.07 101.55L173.08 101.04L175.38 104H174.29L172.54 101.68L172.93 101.74L171.21 104H170.14Z" fill="black"/>
<path d="M179.68 104V92.8H181.28V102.608H187.344V104H179.68ZM189.34 104V92.8H190.94V104H189.34ZM194.453 104V92.8H198.821C199.802 92.8 200.64 92.9547 201.333 93.264C202.026 93.5733 202.56 94.0213 202.933 94.608C203.306 95.1947 203.493 95.8933 203.493 96.704C203.493 97.5147 203.306 98.2133 202.933 98.8C202.56 99.376 202.026 99.824 201.333 100.144C200.64 100.453 199.802 100.608 198.821 100.608H195.333L196.053 99.856V104H194.453ZM196.053 100.016L195.333 99.216H198.773C199.797 99.216 200.57 98.9973 201.093 98.56C201.626 98.1227 201.893 97.504 201.893 96.704C201.893 95.904 201.626 95.2853 201.093 94.848C200.57 94.4107 199.797 94.192 198.773 94.192H195.333L196.053 93.392V100.016ZM206.004 104V92.8H210.372C211.353 92.8 212.19 92.9547 212.884 93.264C213.577 93.5733 214.11 94.0213 214.484 94.608C214.857 95.1947 215.044 95.8933 215.044 96.704C215.044 97.5147 214.857 98.2133 214.484 98.8C214.11 99.376 213.577 99.824 212.884 100.144C212.19 100.453 211.353 100.608 210.372 100.608H206.884L207.604 99.856V104H206.004ZM207.604 100.016L206.884 99.216H210.324C211.348 99.216 212.121 98.9973 212.644 98.56C213.177 98.1227 213.444 97.504 213.444 96.704C213.444 95.904 213.177 95.2853 212.644 94.848C212.121 94.4107 211.348 94.192 210.324 94.192H206.884L207.604 93.392V100.016ZM220.975 104.128C220.121 104.128 219.305 104 218.527 103.744C217.748 103.477 217.135 103.136 216.687 102.72L217.279 101.472C217.705 101.845 218.249 102.155 218.911 102.4C219.572 102.645 220.26 102.768 220.975 102.768C221.625 102.768 222.153 102.693 222.559 102.544C222.964 102.395 223.263 102.192 223.455 101.936C223.647 101.669 223.743 101.371 223.743 101.04C223.743 100.656 223.615 100.347 223.359 100.112C223.113 99.8773 222.788 99.6907 222.383 99.552C221.988 99.4027 221.551 99.2747 221.071 99.168C220.591 99.0613 220.105 98.9387 219.615 98.8C219.135 98.6507 218.692 98.464 218.287 98.24C217.892 98.016 217.572 97.7173 217.327 97.344C217.081 96.96 216.959 96.4693 216.959 95.872C216.959 95.296 217.108 94.768 217.407 94.288C217.716 93.7973 218.185 93.408 218.815 93.12C219.455 92.8213 220.265 92.672 221.247 92.672C221.897 92.672 222.543 92.7573 223.183 92.928C223.823 93.0987 224.377 93.344 224.847 93.664L224.319 94.944C223.839 94.624 223.332 94.3947 222.799 94.256C222.265 94.1067 221.748 94.032 221.247 94.032C220.617 94.032 220.1 94.112 219.695 94.272C219.289 94.432 218.991 94.6453 218.799 94.912C218.617 95.1787 218.527 95.4773 218.527 95.808C218.527 96.2027 218.649 96.5173 218.895 96.752C219.151 96.9867 219.476 97.1733 219.871 97.312C220.276 97.4507 220.719 97.5787 221.199 97.696C221.679 97.8027 222.159 97.9253 222.639 98.064C223.129 98.2027 223.572 98.384 223.967 98.608C224.372 98.832 224.697 99.1307 224.943 99.504C225.188 99.8773 225.311 100.357 225.311 100.944C225.311 101.509 225.156 102.037 224.847 102.528C224.537 103.008 224.057 103.397 223.407 103.696C222.767 103.984 221.956 104.128 220.975 104.128Z" fill="black"/>
</svg>
