<svg width="83" height="83" viewBox="0 0 83 83" fill="none" xmlns="http://www.w3.org/2000/svg">
<path d="M44.3368 76.8971C44.3368 80.5588 43.1211 83 41.5 83C39.8789 83 38.6632 80.5588 38.6632 76.8971C38.6632 73.2353 40.6895 67.1324 41.5 67.1324C42.3105 67.1324 44.3368 73.2353 44.3368 76.8971Z" fill="#62003C"/>
<path fill-rule="evenodd" clip-rule="evenodd" d="M38.6632 13.4265C38.6632 13.4265 39.0684 0 41.5 0C43.9316 0 44.3368 13.4265 44.3368 13.4265C44.3368 13.4265 51.2263 14.6471 54.8737 22.3775C58.5211 30.1078 53.6579 37.0245 53.6579 37.0245C53.6579 37.0245 60.5474 41.0931 60.5474 32.1422C60.5474 23.1912 67.0316 21.5637 67.0316 21.5637C67.0316 21.5637 65.4105 26.0392 66.6263 30.1078C67.8421 34.1765 66.2211 38.652 66.2211 38.652C66.2211 38.652 80 39.0588 80 41.5C80 43.9412 57.3053 47.1961 57.3053 47.1961C57.3053 47.1961 60.181 50.0441 61.7632 53.299C63.3453 56.5539 63.4488 61.6884 62.5737 61.0294C61.9284 60.5435 61.5895 60.1652 61.14 59.6633C60.4603 58.9043 59.5277 57.8629 56.9 55.7402C52.5346 52.2136 50.0105 51.6716 50.0105 51.6716C50.0105 51.6716 49.6619 52.8922 50.8211 58.1814C51.3633 60.6555 51.9303 61.8833 52.4217 62.9475C52.9809 64.1583 53.4422 65.1572 53.6579 67.5392C54.0632 72.0147 51.6316 76.4902 51.2263 76.4902C51.1141 76.4902 51.1572 76.194 51.2352 75.6578C51.439 74.2568 51.8812 71.2172 50.4158 67.5392C49.9152 66.2828 48.9509 65.1015 47.7933 63.6835C46.9759 62.6821 46.0622 61.5628 45.1474 60.2157C43.7336 58.1338 42.802 54.8868 42.2081 52.8168C41.8735 51.6505 41.646 50.8578 41.5 50.8578C41.3539 50.8578 41.1265 51.6505 40.7919 52.8168C40.198 54.8868 39.2664 58.1338 37.8526 60.2157C36.9378 61.5628 36.0241 62.6821 35.2067 63.6835C34.0491 65.1015 33.0848 66.2828 32.5842 67.5392C31.1188 71.2172 31.561 74.2568 31.7648 75.6578C31.8428 76.194 31.8859 76.4902 31.7737 76.4902C31.3684 76.4902 28.9368 72.0147 29.3421 67.5392C29.5578 65.1572 30.0191 64.1583 30.5783 62.9475C31.0697 61.8833 31.6367 60.6555 32.1789 58.1814C33.3381 52.8922 32.9895 51.6716 32.9895 51.6716C32.9895 51.6716 30.4654 52.2136 26.1 55.7402C23.4723 57.8629 22.5397 58.9043 21.86 59.6633C21.4105 60.1652 21.0716 60.5435 20.4263 61.0294C19.5512 61.6884 19.6547 56.5539 21.2368 53.299C22.819 50.0441 25.6947 47.1961 25.6947 47.1961C25.6947 47.1961 3 43.9412 3 41.5C3 39.0588 16.7789 38.652 16.7789 38.652C16.7789 38.652 15.1579 34.1765 16.3737 30.1078C17.5895 26.0392 15.9684 21.5637 15.9684 21.5637C15.9684 21.5637 22.4526 23.1912 22.4526 32.1422C22.4526 41.0931 29.3421 37.0245 29.3421 37.0245C29.3421 37.0245 24.4789 30.1078 28.1263 22.3775C31.7737 14.6471 38.6632 13.4265 38.6632 13.4265ZM46.7745 38.2451C44.8687 38.2451 43.4205 36.4933 43.5324 34.5833C43.6375 32.7888 44.9839 31.3284 46.7745 31.3284C48.5651 31.3284 49.9115 32.7888 50.0166 34.5833C50.1005 36.0158 49.3069 37.3593 48.1008 37.9415C47.6988 38.1356 47.2509 38.2451 46.7745 38.2451ZM32.9955 34.5833C32.8836 36.4933 34.3319 38.2451 36.2377 38.2451C36.7141 38.2451 37.1619 38.1356 37.564 37.9415C38.77 37.3593 39.5637 36.0158 39.4798 34.5833C39.3746 32.7888 38.0282 31.3284 36.2377 31.3284C34.4471 31.3284 33.1007 32.7888 32.9955 34.5833Z" fill="#62003C"/>
</svg>
