<svg width="168" height="168" viewBox="0 0 168 168" fill="none" xmlns="http://www.w3.org/2000/svg">
<rect width="168" height="168" rx="84" fill="white"/>
<path d="M89.4525 151.802C89.4525 158.84 87.1158 163.532 83.9999 163.532C80.884 163.532 78.5474 158.84 78.5474 151.802C78.5474 144.764 82.4421 133.034 83.9999 133.034C85.5578 133.034 89.4525 144.764 89.4525 151.802Z" fill="black"/>
<path fill-rule="evenodd" clip-rule="evenodd" d="M78.5474 29.8067C78.5474 29.8067 79.3263 4 84 4C88.6737 4 89.4525 29.8067 89.4525 29.8067C89.4525 29.8067 102.695 32.1528 109.705 47.0112C116.716 61.8694 107.368 75.1638 107.368 75.1638C107.368 75.1638 120.611 82.984 120.611 65.7797C120.611 48.5752 133.074 45.447 133.074 45.447C133.074 45.447 129.958 54.0493 132.295 61.8694C134.632 69.6898 131.516 78.292 131.516 78.292C131.516 78.292 158 79.0739 158 83.7661C158 88.4582 114.379 94.7144 114.379 94.7144C114.379 94.7144 119.906 100.188 122.947 106.445C125.988 112.701 126.187 122.57 124.505 121.303C123.265 120.369 122.614 119.642 121.75 118.677C120.443 117.218 118.651 115.217 113.6 111.137C105.209 104.358 100.358 103.317 100.358 103.317C100.358 103.317 99.6878 105.663 101.916 115.829C102.958 120.584 104.048 122.944 104.992 124.99C106.067 127.317 106.954 129.237 107.368 133.815C108.147 142.418 103.474 151.02 102.695 151.02C102.479 151.02 102.562 150.451 102.712 149.42C103.104 146.727 103.953 140.885 101.137 133.815C100.175 131.4 98.3212 129.13 96.0962 126.404C94.5251 124.48 92.7689 122.328 91.0106 119.739C88.2931 115.737 86.5025 109.496 85.361 105.518C84.7179 103.276 84.2806 101.752 84 101.752C83.7192 101.752 83.2821 103.276 82.639 105.518C81.4975 109.496 79.7068 115.737 76.9894 119.739C75.2311 122.328 73.4749 124.48 71.9038 126.404C69.6788 129.13 67.8253 131.4 66.8631 133.815C64.0465 140.885 64.8965 146.727 65.2882 149.42C65.4381 150.451 65.5209 151.02 65.3053 151.02C64.5263 151.02 59.8525 142.418 60.6316 133.815C61.0462 129.237 61.9328 127.317 63.0076 124.99C63.9521 122.944 65.042 120.584 66.0841 115.829C68.3122 105.663 67.6421 103.317 67.6421 103.317C67.6421 103.317 62.7906 104.358 54.4 111.137C49.3494 115.217 47.5568 117.218 46.2504 118.677C45.3864 119.642 44.735 120.369 43.4947 121.303C41.8127 122.57 42.0116 112.701 45.0525 106.445C48.0937 100.188 53.621 94.7144 53.621 94.7144C53.621 94.7144 10 88.4582 10 83.7661C10 79.0739 36.4841 78.292 36.4841 78.292C36.4841 78.292 33.3684 69.6898 35.7053 61.8694C38.0422 54.0493 34.9263 45.447 34.9263 45.447C34.9263 45.447 47.3894 48.5752 47.3894 65.7797C47.3894 82.984 60.6316 75.1638 60.6316 75.1638C60.6316 75.1638 51.2841 61.8694 58.2947 47.0112C65.3053 32.1528 78.5474 29.8067 78.5474 29.8067ZM94.138 77.5099C90.4749 77.5099 87.6913 74.1428 87.9064 70.4717C88.1084 67.0225 90.6963 64.2155 94.138 64.2155C97.5797 64.2155 100.168 67.0225 100.37 70.4717C100.531 73.225 99.0055 75.8073 96.6872 76.9264C95.9146 77.2995 95.0537 77.5099 94.138 77.5099ZM67.6537 70.4717C67.4386 74.1428 70.2224 77.5099 73.8854 77.5099C74.8011 77.5099 75.6618 77.2995 76.4347 76.9264C78.7527 75.8073 80.2783 73.225 80.117 70.4717C79.9148 67.0225 77.3269 64.2155 73.8854 64.2155C70.4438 64.2155 67.8559 67.0225 67.6537 70.4717Z" fill="black"/>
</svg>
