<svg width="83" height="83" viewBox="0 0 83 83" fill="none" xmlns="http://www.w3.org/2000/svg">
<g clip-path="url(#clip0_8_76)">
<path d="M45.7895 129.706C45.7895 135.882 43.7368 140 41 140C38.2632 140 36.2105 135.882 36.2105 129.706C36.2105 123.529 39.6316 113.235 41 113.235C42.3684 113.235 45.7895 123.529 45.7895 129.706Z" fill="#62003C"/>
<path fill-rule="evenodd" clip-rule="evenodd" d="M36.2105 22.6471C36.2105 22.6471 36.8947 0 41 0C45.1053 0 45.7895 22.6471 45.7895 22.6471C45.7895 22.6471 57.4211 24.7059 63.5789 37.7451C69.7368 50.7843 61.5263 62.451 61.5263 62.451C61.5263 62.451 73.1579 69.3137 73.1579 54.2157C73.1579 39.1176 84.1053 36.3726 84.1053 36.3726C84.1053 36.3726 81.3684 43.9216 83.4211 50.7843C85.4737 57.6471 82.7368 65.1961 82.7368 65.1961C82.7368 65.1961 106 65.8824 106 70C106 74.1176 67.6842 79.6078 67.6842 79.6078C67.6842 79.6078 72.5393 84.4118 75.2105 89.902C77.8817 95.3922 78.0565 104.053 76.5789 102.941C75.4895 102.122 74.9174 101.483 74.1585 100.637C73.011 99.3567 71.4363 97.6001 67 94.0196C59.6298 88.0712 55.3684 87.1569 55.3684 87.1569C55.3684 87.1569 54.7799 89.2157 56.7368 98.1373C57.6523 102.311 58.6095 104.381 59.4392 106.176C60.3833 108.219 61.1622 109.904 61.5263 113.922C62.2105 121.471 58.1053 129.02 57.4211 129.02C57.2317 129.02 57.3044 128.52 57.4361 127.616C57.7802 125.252 58.5267 120.125 56.0526 113.922C55.2075 111.802 53.5794 109.81 51.6251 107.418C50.2451 105.729 48.7024 103.841 47.1579 101.569C44.771 98.057 43.1981 92.5801 42.1955 89.0886C41.6305 87.1213 41.2466 85.7843 41 85.7843C40.7534 85.7843 40.3695 87.1213 39.8045 89.0886C38.8019 92.5801 37.229 98.057 34.8421 101.569C33.2976 103.841 31.7549 105.729 30.3749 107.418C28.4206 109.81 26.7925 111.802 25.9474 113.922C23.4733 120.125 24.2198 125.252 24.5639 127.616C24.6956 128.52 24.7683 129.02 24.5789 129.02C23.8947 129.02 19.7895 121.471 20.4737 113.922C20.8378 109.904 21.6167 108.219 22.5608 106.176C23.3905 104.381 24.3477 102.311 25.2632 98.1373C27.2201 89.2157 26.6316 87.1569 26.6316 87.1569C26.6316 87.1569 22.3702 88.0712 15 94.0196C10.5637 97.6001 8.98902 99.3567 7.84149 100.637C7.0826 101.483 6.5105 102.122 5.42105 102.941C3.94353 104.053 4.11828 95.3922 6.78947 89.902C9.46067 84.4118 14.3158 79.6078 14.3158 79.6078C14.3158 79.6078 -24 74.1176 -24 70C-24 65.8824 -0.736842 65.1961 -0.736842 65.1961C-0.736842 65.1961 -3.47368 57.6471 -1.42105 50.7843C0.631579 43.9216 -2.10526 36.3726 -2.10526 36.3726C-2.10526 36.3726 8.84211 39.1176 8.84211 54.2157C8.84211 69.3137 20.4737 62.451 20.4737 62.451C20.4737 62.451 12.2632 50.7843 18.4211 37.7451C24.5789 24.7059 36.2105 22.6471 36.2105 22.6471ZM49.905 64.5098C46.6875 64.5098 44.2424 61.555 44.4313 58.3333C44.6088 55.3064 46.882 52.8431 49.905 52.8431C52.928 52.8431 55.2012 55.3064 55.3787 58.3333C55.5204 60.7496 54.1804 63.0157 52.1442 63.9978C51.4655 64.3251 50.7094 64.5098 49.905 64.5098ZM26.6418 58.3333C26.4529 61.555 28.898 64.5098 32.1155 64.5098C32.9199 64.5098 33.676 64.3251 34.3547 63.9978C36.391 63.0157 37.7309 60.7496 37.5892 58.3333C37.4117 55.3064 35.1385 52.8431 32.1155 52.8431C29.0925 52.8431 26.8194 55.3064 26.6418 58.3333Z" fill="#62003C"/>
</g>
<defs>
<clipPath id="clip0_8_76">
<rect width="83" height="83" fill="white"/>
</clipPath>
</defs>
</svg>
